HIERARCHY
ROOT Hips
{
	OFFSET 0.00000 0.00000 0.00000
	CHANNELS 6 Xposition Yposition Zposition Zrotation Yrotation Xrotation 
	JOINT LHipJoint
	{
		OFFSET 0 0 0
		CHANNELS 3 Zrotation Yrotation Xrotation
		JOINT LeftUpLeg
		{
			OFFSET 1.56857 -1.73443 1.15205
			CHANNELS 3 Zrotation Yrotation Xrotation
			JOINT LeftLeg
			{
				OFFSET 2.39362 -6.57643 0.00000
				CHANNELS 3 Zrotation Yrotation Xrotation
				JOINT LeftFoot
				{
					OFFSET 2.50952 -6.89485 0.00000
					CHANNELS 3 Zrotation Yrotation Xrotation
					JOINT LeftToeBase
					{
						OFFSET 0.17171 -0.47178 1.88682
						CHANNELS 3 Zrotation Yrotation Xrotation
						End Site
						{
							OFFSET 0.00000 -0.00000 0.98146
						}
					}
				}
			}
		}
	}
	JOINT RHipJoint
	{
		OFFSET 0 0 0
		CHANNELS 3 Zrotation Yrotation Xrotation
		JOINT RightUpLeg
		{
			OFFSET -1.28153 -1.73443 1.15205
			CHANNELS 3 Zrotation Yrotation Xrotation
			JOINT RightLeg
			{
				OFFSET -2.26861 -6.23296 0.00000
				CHANNELS 3 Zrotation Yrotation Xrotation
				JOINT RightFoot
				{
					OFFSET -2.54143 -6.98254 0.00000
					CHANNELS 3 Zrotation Yrotation Xrotation
					JOINT RightToeBase
					{
						OFFSET -0.23309 -0.64041 1.93119
						CHANNELS 3 Zrotation Yrotation Xrotation
						End Site
						{
							OFFSET -0.00000 -0.00000 1.02013
						}
					}
				}
			}
		}
	}
	JOINT LowerBack
	{
		OFFSET 0 0 0
		CHANNELS 3 Zrotation Yrotation Xrotation
		JOINT Spine
		{
			OFFSET -0.07096 2.10460 -0.27878
			CHANNELS 3 Zrotation Yrotation Xrotation
			JOINT Spine1
			{
				OFFSET -0.00826 2.13662 -0.08279
				CHANNELS 3 Zrotation Yrotation Xrotation
				JOINT Neck
				{
					OFFSET 0 0 0
					CHANNELS 3 Zrotation Yrotation Xrotation
					JOINT Neck1
					{
						OFFSET 0.03239 1.77799 0.24435
						CHANNELS 3 Zrotation Yrotation Xrotation
						JOINT Head
						{
							OFFSET 0.01026 1.74194 -0.49664
							CHANNELS 3 Zrotation Yrotation Xrotation
							End Site
							{
								OFFSET 0.00170 1.83057 -0.19653
							}
						}
					}
				}
				JOINT LeftShoulder
				{
					OFFSET 0 0 0
					CHANNELS 3 Zrotation Yrotation Xrotation
					JOINT LeftArm
					{
						OFFSET 3.19178 1.35907 -0.31412
						CHANNELS 3 Zrotation Yrotation Xrotation
						JOINT LeftForeArm
						{
							OFFSET 4.85247 -0.00000 -0.00000
							CHANNELS 3 Zrotation Yrotation Xrotation
							JOINT LeftHand
							{
								OFFSET 3.55584 -0.00000 0.00000
								CHANNELS 3 Zrotation Yrotation Xrotation
								JOINT LeftFingerBase
								{
									OFFSET 0 0 0
									CHANNELS 3 Zrotation Yrotation Xrotation
									JOINT LeftHandIndex1
									{
										OFFSET 0.69320 -0.00000 0.00000
										CHANNELS 3 Zrotation Yrotation Xrotation
										End Site
										{
											OFFSET 0.55888 -0.00000 0.00000
										}
									}
								}
								JOINT LThumb
								{
									OFFSET 0 0 0
									CHANNELS 3 Zrotation Yrotation Xrotation
									End Site
									{
										OFFSET 0.56741 -0.00000 0.56741
									}
								}
							}
						}
					}
				}
				JOINT RightShoulder
				{
					OFFSET 0 0 0
					CHANNELS 3 Zrotation Yrotation Xrotation
					JOINT RightArm
					{
						OFFSET -3.28999 1.24191 -0.26899
						CHANNELS 3 Zrotation Yrotation Xrotation
						JOINT RightForeArm
						{
							OFFSET -4.64462 -0.00000 0.00000
							CHANNELS 3 Zrotation Yrotation Xrotation
							JOINT RightHand
							{
								OFFSET -3.40703 -0.00000 0.00000
								CHANNELS 3 Zrotation Yrotation Xrotation
								JOINT RightFingerBase
								{
									OFFSET 0 0 0
									CHANNELS 3 Zrotation Yrotation Xrotation
									JOINT RightHandIndex1
									{
										OFFSET -0.61958 -0.00000 0.00000
										CHANNELS 3 Zrotation Yrotation Xrotation
										End Site
										{
											OFFSET -0.49952 -0.00000 0.00000
										}
									}
								}
								JOINT RThumb
								{
									OFFSET 0 0 0
									CHANNELS 3 Zrotation Yrotation Xrotation
									End Site
									{
										OFFSET -0.50715 -0.00000 0.50715
									}
								}
							}
						}
					}
				}
			}
		}
	}
}
MOTION
Frames: 6
Frame Time: .0083333
34.7832 16.8104 13.9526 -172.2200 63.5841 -171.8480 0.0000 0.0000 0.0000 -39.9824 -8.7351 9.0278 0.4032 4.0765 11.2921 0.4508 -1.9990 -12.1489 2.9868 10.6736 31.1869 0.0000 0.0000 0.0000 2.4818 4.3252 -19.9898 -7.1091 -15.4231 49.2859 -0.1884 -2.7576 -9.6951 -0.0362 1.2283 -3.3771 -6.1023 1.3517 11.2110 -1.0959 1.3695 4.2972 2.1151 0.7540 -1.8862 4.1101 -1.1561 -18.9210 -8.5677 -0.4639 21.0656 -3.7511 -0.7940 9.7669 0.0000 0.0000 0.0000 -74.9033 6.9133 57.6713 51.0477 -53.4094 -27.0131 -0.0000 0.0000 -15.8981 19.1518 -19.4955 -6.6113 -7.1250 0.0000 -0.0000 -5.9095 9.5226 4.8771 0.0000 0.0000 0.0000 79.1723 -18.8036 37.7518 -21.4760 32.3798 -6.3029 0.0000 -0.0000 -11.6069 -27.9735 -32.4311 15.8985 7.1250 -0.0000 -0.0000 5.3734 -65.6375 -2.6818
34.9777 16.8358 13.9235 -171.1270 61.3192 -170.7430 0.0000 0.0000 0.0000 -38.8754 -8.4993 10.5570 0.3197 3.6345 10.0506 0.4152 -2.5698 -11.5573 3.3907 11.3022 33.3058 0.0000 0.0000 0.0000 3.3765 4.2323 -20.3834 -6.3853 -14.7916 46.5092 -0.1720 -3.6700 -10.0671 -0.0536 1.4937 -4.1084 -5.4505 1.0353 11.1064 -0.6611 1.0340 4.3420 2.2480 0.5824 -1.7569 -0.4018 -1.3397 -22.1984 -3.5574 -0.4000 24.6704 -1.3032 -0.5885 11.7661 -0.0000 0.0000 0.0000 -74.3851 5.0529 59.4717 55.1571 -54.8749 -30.3444 -0.0000 0.0000 -14.6275 18.6436 -20.3185 -6.6819 -7.1250 0.0000 -0.0000 -6.2878 8.7391 5.2923 -0.0000 0.0000 0.0000 79.0108 -20.5260 36.6826 -21.3200 32.2000 -6.2196 0.0000 -0.0000 -11.6074 -27.7309 -32.8097 15.8996 7.1250 -0.0000 -0.0000 5.9454 -65.9564 -3.0119
35.1798 16.8562 13.8850 -172.4660 59.2235 -171.6250 0.0000 0.0000 0.0000 -38.8757 -7.7748 11.5892 0.2557 3.2533 8.9846 0.3469 -3.5842 -10.4721 3.8748 11.9919 35.7033 0.0000 0.0000 0.0000 2.7505 3.7342 -20.9665 -5.6553 -14.0858 43.5821 -0.2047 -4.0502 -11.0173 -0.0223 0.9634 -2.6481 -5.9420 0.7385 10.7657 -0.5944 0.6168 4.3400 2.6491 0.3650 -1.5411 -0.6731 -1.5973 -22.2940 -3.4164 -0.7014 24.7421 -1.2566 -0.7312 11.8087 0.0000 0.0000 0.0000 -73.8483 3.1248 61.0661 59.3633 -56.1379 -33.8118 -0.0000 0.0000 -13.4603 18.2272 -20.4924 -6.5764 -7.1250 0.0000 -0.0000 -6.5653 8.6157 5.5452 0.0000 0.0000 0.0000 78.9272 -22.2440 35.5146 -21.2959 32.1721 -6.2067 0.0000 -0.0000 -11.8687 -27.3923 -33.0290 15.7719 7.1250 -0.0000 -0.0000 6.5385 -66.0824 -3.3324
35.3804 16.8739 13.8451 -173.1250 57.3461 -171.7320 0.0000 0.0000 0.0000 -38.3570 -6.8248 12.1909 0.2048 2.9142 8.0399 0.2706 -4.7085 -9.3272 3.8452 11.9516 35.5609 0.0000 0.0000 0.0000 2.4771 3.5301 -21.6229 -4.9372 -13.3127 40.5507 -0.2538 -4.4224 -12.1875 -0.0376 1.2518 -3.4420 -6.1135 0.5110 10.3661 -0.5127 0.3155 4.2281 2.8680 0.2073 -1.4127 -0.9206 -2.1348 -22.4983 -3.2745 -1.4170 24.7602 -1.2836 -1.0605 11.8457 -0.0000 0.0000 0.0000 -73.2727 1.2725 62.6283 63.8164 -57.2440 -37.5341 -0.0000 0.0000 -12.4970 18.2101 -20.3428 -6.5243 -7.1250 0.0000 -0.0000 -6.5674 8.7720 5.5264 -0.0000 0.0000 0.0000 78.9219 -24.0230 34.3736 -21.3916 32.2826 -6.2578 0.0000 -0.0000 -12.1179 -26.6076 -33.3079 15.3805 7.1250 -0.0000 -0.0000 7.7536 -66.1376 -3.9646
35.5781 16.8831 13.8196 -173.4730 55.4547 -171.5960 0.0000 0.0000 0.0000 -37.5580 -5.9835 12.6034 0.1741 2.6876 7.4102 0.2116 -5.8027 -8.5562 3.5053 11.4712 33.8861 0.0000 0.0000 0.0000 2.4196 3.4664 -22.2063 -4.2383 -12.4710 37.4191 -0.2573 -5.3394 -13.0333 -0.0273 1.0669 -2.9329 -6.2563 0.3266 10.1726 -0.3718 0.0552 4.0472 3.1248 0.0756 -1.4702 -1.7765 -2.5729 -22.6763 -2.5472 -1.9241 25.0181 -0.9597 -1.2725 11.9932 -0.0000 -0.0000 0.0000 -72.8371 -0.5848 64.0577 68.3140 -58.1462 -41.3363 -0.0000 0.0000 -11.8067 18.5313 -20.5234 -6.7026 -7.1250 0.0000 -0.0000 -6.3726 8.5428 5.3896 -0.0000 -0.0000 0.0000 78.9174 -25.9170 33.4912 -21.5321 32.4442 -6.3330 0.0000 -0.0000 -12.2168 -25.8908 -33.2666 14.9089 7.1250 -0.0000 -0.0000 8.6327 -65.8882 -4.3673
35.7722 16.8835 13.7913 -173.6780 53.6102 -171.3010 0.0000 0.0000 0.0000 -36.8222 -5.6054 13.0752 0.1585 2.5655 7.0714 0.1846 -6.6181 -8.3441 3.5215 11.4948 33.9675 0.0000 0.0000 0.0000 2.4081 3.3164 -22.7829 -3.5610 -11.5521 34.1652 -0.2678 -6.0545 -13.8488 -0.2299 3.0858 -8.5178 -6.4180 0.1210 9.7491 -0.1432 -0.2059 4.0032 3.4815 -0.0667 -1.2545 -1.9138 -3.0215 -22.4289 -2.6058 -2.5148 24.6738 -1.0477 -1.5588 11.8087 -0.0000 0.0000 0.0000 -72.6396 -2.7715 65.1066 72.5649 -58.8197 -44.9606 -0.0000 0.0000 -11.2005 18.7632 -21.1704 -6.9943 -7.1250 0.0000 -0.0000 -6.2669 7.8437 5.3861 -0.0000 0.0000 0.0000 78.7283 -27.5660 32.7914 -21.7302 32.6708 -6.4396 0.0000 -0.0000 -12.5467 -25.6082 -33.0402 14.6453 7.1250 -0.0000 -0.0000 8.8137 -65.5790 -4.3966
